<?xml version="1.0" encoding="UTF-8" standalone="no"?>
<svg
   width="365"
   height="345"
   version="1.1"
   id="svg40"
   sodipodi:docname="Logo_Only.svg"
   inkscape:version="1.4.3 (0d15f75, 2025-12-25)"
   inkscape:export-filename="Logo_Only_Vector.png"
   inkscape:export-xdpi="96"
   inkscape:export-ydpi="96"
   xmlns:inkscape="http://www.inkscape.org/namespaces/inkscape"
   xmlns:sodipodi="http://sodipodi.sourceforge.net/DTD/sodipodi-0.dtd"
   xmlns="http://www.w3.org/2000/svg"
   xmlns:svg="http://www.w3.org/2000/svg">
  <defs
     id="defs40" />
  <sodipodi:namedview
     id="namedview40"
     pagecolor="#ffffff"
     bordercolor="#000000"
     borderopacity="0.25"
     inkscape:showpageshadow="2"
     inkscape:pageopacity="0.0"
     inkscape:pagecheckerboard="0"
     inkscape:deskcolor="#d1d1d1"
     inkscape:zoom="1.1695652"
     inkscape:cx="392.88104"
     inkscape:cy="185.11152"
     inkscape:window-width="2560"
     inkscape:window-height="1009"
     inkscape:window-x="-8"
     inkscape:window-y="-8"
     inkscape:window-maximized="1"
     inkscape:current-layer="svg40" />
  <path
     style="fill:#ffffff; stroke:none;"
     d="M0 0L0 345L365 345L365 0L0 0z"
     id="path1" />
  <path
     style="fill:#020101;stroke:none"
     d="m 14,256 c 10.995,-0.868 22.063,-0.809 33,-2.427 35.8736,-5.31 71.40699,-18.51602 101,-39.677 16.274,-11.637 29.025,-27.42224 43,-41.896 0,25.04 -1.395,49.916 -9.029,74 -12.955,40.878 -46.34691,79.32533 -86.787915,95.01533 C 103.42495,341.18475 111.586,341.01 118,341 c 21.494,-0.035 44.608,-3.876 65,-10.667 9.462,-3.151 19.003,-6.239 28,-10.591 32.962,-15.947 61.887,-37.951 81,-69.742 9.792,-16.288 17.36288,-34.81915 14.60688,-54.15115 -1.24,-8.697 -3.6457,-17.48344 -7.2617,-25.45344 -4.353,-9.595 -11.38492,-18.19804 -18.71892,-25.71604 -10.018,-10.27 -23.04698,-26.57014 -32.24704,-30.13416 C 265.22522,97.699207 280.157,81.8428 297,65 c 5.965,-5.9653 12.55088,-13.203298 19.00984,-18.108576 1.89667,-5.978366 -2.51085,0.08459 1.56115,-4.287909 8.502,-9.1269 1.94252,-2.07262 37.42901,-39.6569537 -30.599,0 -61.505,-1.1244213 -92,0.9639287 -16.017,1.09683 -30.687,1.7525 -46,7.51461 C 187.777,22.4214 166.471,50.5291 145,72 91.4571,125.543 35.2717,181.04 14,256 Z"
     id="path2"
     sodipodi:nodetypes="ccsccccsccccccccccsscc" />
  <path
     style="fill:#f42d30;stroke:none"
     d="m 319.56941,40.447115 -72.03502,73.804745 c 4.62218,3.61257 2.92326,2.8138 14.88394,13.46308 6.19831,5.51871 14.37606,13.46092 20.02606,19.53692 12.569,13.515 22.63,32.309 24,51 0.597,8.142 -0.895,15.974 -1.91,24 8.328,-11.13 10.544,-29.54 12.155,-43 3.65,-30.503 2.845,-61.315 2.845,-92.000001 v -30 c 0,-4.640126 0.21645,-12.73273 0.035,-16.804744 z"
     id="path3"
     sodipodi:nodetypes="ccsccccsscc" />
  <path
     style="fill:#f1b508;stroke:none"
     d="M 191.04205,171.8664 C 181.61105,182.1054 170.975,192.255 161,201.985 c -4.283,4.178 -9.703,7.628 -13.451,12.3 -3.396,4.233 -5.841,9.357 -9.2,13.715 -14.307,18.56 -29.467,36.853 -45.4385,54 -21.0104,22.556 -35.379854,41.79298 -61.585454,57.83498 0.25922,0.0274 0.0057,-0.002 3.674954,0.16502 l 22.343401,1.01533 c 8.990423,0.40855 -1.237418,0.0916 14.602231,0.50867 9.792133,-0.14132 19.464877,-0.15321 23.462593,-0.57251 C 106.06122,337.85749 119.166,329.324 128,322.845 159.473,299.764 180.793,263.366 187.247,225 c 2.098,-12.473 3.752,-25.346 3.753,-38 0,-4.809 0.15358,-10.55772 0.042,-15.1336 z"
     id="path5"
     sodipodi:nodetypes="ccccccssccccccc" />
  <path
     style="fill:#f42d30;stroke:none"
     d="m 185,177 1.34735,1.10688 z"
     id="path6"
     sodipodi:nodetypes="ccc" />
  <path
     style="fill:#020101; stroke:none;"
     d="M316 177L317 178L316 177z"
     id="path7" />
  <path
     style="fill:#020101; stroke:none;"
     d="M312 200L313 201L312 200z"
     id="path9" />
  <path
     style="fill:#f42d30; stroke:none;"
     d="M158 204L159 205L158 204M157 205L158 206L157 205M156 206L157 207L156 206M189.333 208.667C189.278 208.722 189.222 209.778 189.667 209.333C189.722 209.278 189.778 208.222 189.333 208.667M149 212L150 213L149 212z"
     id="path10" />
  <path
     style="fill:#020101; stroke:none;"
     d="M307 215L308 216L307 215M143 221L144 222L143 221M140 225L141 226L140 225M137 229L138 230L137 229M133 234L134 235L133 234M128 240L129 241L128 240z"
     id="path11" />
  <path
     style="fill:#f42d30; stroke:none;"
     d="M182 244L183 245L182 244z"
     id="path12" />
  <path
     style="fill:#020101; stroke:none;"
     d="M123 246L124 247L123 246z"
     id="path13" />
  <path
     style="fill:#f42d30; stroke:none;"
     d="M181 247L182 248L181 247z"
     id="path14" />
  <path
     style="fill:#020101; stroke:none;"
     d="M120 250L121 251L120 250z"
     id="path15" />
  <path
     style="fill:#f42d30; stroke:none;"
     d="M180 250L181 251L180 250z"
     id="path16" />
  <path
     style="fill:#020101; stroke:none;"
     d="M116 255L117 256L116 255M115 256L116 257L115 256z"
     id="path17" />
  <path
     style="fill:#f42d30; stroke:none;"
     d="M177 258L178 259L177 258M110 262L111 263L110 262M175 263L176 264L175 263z"
     id="path18" />
  <path
     style="fill:#020101; stroke:none;"
     d="M108 264L109 265L108 264M107 265L108 266L107 265z"
     id="path19" />
  <path
     style="fill:#f42d30; stroke:none;"
     d="M174 265L175 266L174 265M173 267L174 268L173 267M172 269L173 270L172 269M171 271L172 272L171 271z"
     id="path20" />
  <path
     style="fill:#020101; stroke:none;"
     d="M101 272L102 273L101 272z"
     id="path21" />
  <path
     style="fill:#f42d30; stroke:none;"
     d="M167 278L168 279L167 278M95 279L96 280L95 279M162 286L163 287L162 286z"
     id="path22" />
  <path
     style="fill:#020101; stroke:none;"
     d="M83 291L84 292L83 291M82 292L83 293L82 292M81 293L82 294L81 293z"
     id="path23" />
  <path
     style="fill:#f42d30; stroke:none;"
     d="M157 293L158 294L157 293M156 294L157 295L156 294M153 298L154 299L153 298z"
     id="path24" />
  <path
     style="fill:#020101; stroke:none;"
     d="M75 299L76 300L75 299z"
     id="path25" />
  <path
     style="fill:#f42d30; stroke:none;"
     d="M152 299L153 300L152 299z"
     id="path26" />
  <path
     style="fill:#020101; stroke:none;"
     d="M74 300L75 301L74 300M73 301L74 302L73 301M63 310L64 311L63 310z"
     id="path27" />
  <path
     style="fill:#f42d30; stroke:none;"
     d="M62 311L63 312L62 311z"
     id="path28" />
  <path
     style="fill:#020101; stroke:none;"
     d="M54 317L55 318L54 317z"
     id="path29" />
  <path
     style="fill:#f42d30; stroke:none;"
     d="M134 317L135 318L134 317M129 321L130 322L129 321z"
     id="path30" />
  <path
     style="fill:#020101; stroke:none;"
     d="M47 322L48 323L47 322z"
     id="path31" />
  <path
     style="fill:#f42d30; stroke:none;"
     d="M125 324L126 325L125 324M122 326L123 327L122 326z"
     id="path32" />
  <path
     style="fill:#020101; stroke:none;"
     d="M40 327L41 328L40 327z"
     id="path33" />
  <path
     style="fill:#f42d30; stroke:none;"
     d="M39 328L40 329L39 328M119 328L120 329L119 328z"
     id="path34" />
  <path
     style="fill:#020101; stroke:none;"
     d="M36 330L37 331L36 330z"
     id="path35" />
  <path
     style="fill:#f42d30; stroke:none;"
     d="M116 330L117 331L116 330M109 334L110 335L109 334M107 335L108 336L107 335z"
     id="path36" />
  <path
     style="fill:#020101; stroke:none;"
     d="M26 336L27 337L26 336z"
     id="path37" />
  <path
     style="fill:#f42d30; stroke:none;"
     d="M105 336L106 337L105 336M103 337L104 338L103 337z"
     id="path38" />
  <path
     style="fill:#020101; stroke:none;"
     d="M21 339L22 340L21 339M93 340L94 341L93 340z"
     id="path39" />
  <path
     style="fill:#f42d30; stroke:none;"
     d="M96 340L97 341L96 340z"
     id="path40" />
</svg>
